<svg xmlns="http://www.w3.org/2000/svg" xmlns:xlink="http://www.w3.org/1999/xlink" viewBox="0 0 75.74 48.99"><defs><style>.cls-1{fill:url(#linear-gradient);}</style><linearGradient id="linear-gradient" y1="24.49" x2="75.74" y2="24.49" gradientUnits="userSpaceOnUse"><stop offset="0" stop-color="#b163dd"/><stop offset="1" stop-color="#6b3ff6"/></linearGradient></defs><g id="Layer_2" data-name="Layer 2"><g id="Layer_1-2" data-name="Layer 1"><path class="cls-1" d="M37.79,48.92c-10.06,0-20.12-.15-30.18.07A7.36,7.36,0,0,1,0,41.35C.2,30.06.05,18.76.07,7.46.08,2.89,2.57.3,7.14,0c.38,0,.76,0,1.13,0Q37.81,0,67.33,0A11.4,11.4,0,0,1,71.57.7c3,1.2,4.18,3.59,4.17,6.79,0,11.35,0,22.69,0,34,0,4.65-2.75,7.38-7.42,7.39ZM3.43,4.78A16.77,16.77,0,0,0,3,7.32q0,17,0,34.05C3,44.56,4.5,46,7.72,46h60.2c3.38,0,4.84-1.42,4.85-4.8q0-16.78,0-33.57a18.78,18.78,0,0,0-.48-2.83c-.77.61-1.19.93-1.59,1.27Q57,17.75,43.38,29.46a8.43,8.43,0,0,1-11,.06Q18.72,17.85,5.1,6.11C4.66,5.73,4.19,5.39,3.43,4.78Zm3-1.65a9,9,0,0,0,.71.79Q20.74,15.59,34.34,27.24c2.31,2,4.81,1.91,7.14-.09L68.17,4.27a9.33,9.33,0,0,1,1.14-.75L69,3.13Z"/></g></g></svg>