<svg xmlns="http://www.w3.org/2000/svg" xmlns:xlink="http://www.w3.org/1999/xlink" viewBox="0 0 62.22 54.93"><defs><style>.cls-1,.cls-2,.cls-3{fill:none;stroke-linecap:round;stroke-linejoin:round;stroke-width:3.38px;}.cls-1{stroke:url(#linear-gradient);}.cls-2{stroke:url(#linear-gradient-2);}.cls-3{stroke:url(#linear-gradient-3);}</style><linearGradient id="linear-gradient" y1="173.32" x2="62.22" y2="173.32" gradientTransform="matrix(1, 0, 0, -1, 0, 200.79)" gradientUnits="userSpaceOnUse"><stop offset="0" stop-color="#b163dd"/><stop offset="1" stop-color="#6b3ff6"/></linearGradient><linearGradient id="linear-gradient-2" x1="11.77" y1="183.15" x2="51.76" y2="183.15" xlink:href="#linear-gradient"/><linearGradient id="linear-gradient-3" x1="11.11" y1="172.29" x2="51.11" y2="172.29" xlink:href="#linear-gradient"/></defs><g id="Layer_2" data-name="Layer 2"><g id="Layer_1-2" data-name="Layer 1"><g id="Layer_2-2" data-name="Layer 2"><g id="Layer_1-2-2" data-name="Layer 1-2"><path class="cls-1" d="M6.26,1.69H56a4.58,4.58,0,0,1,4.58,4.57v45a2,2,0,0,1-2,2,2,2,0,0,1-1.58-.8L50.07,43H6.26a4.58,4.58,0,0,1-4.57-4.57V6.26A4.58,4.58,0,0,1,6.26,1.69Z"/><line class="cls-2" x1="13.46" y1="17.64" x2="50.07" y2="17.64"/><line class="cls-3" x1="12.8" y1="28.5" x2="49.42" y2="28.5"/></g></g></g></g></svg>