<svg xmlns="http://www.w3.org/2000/svg" xmlns:xlink="http://www.w3.org/1999/xlink" viewBox="0 0 66.88 53.7"><defs><style>.cls-1{fill:url(#linear-gradient);}.cls-2{fill:url(#linear-gradient-2);}</style><linearGradient id="linear-gradient" y1="174.05" x2="66.88" y2="174.05" gradientTransform="matrix(1, 0, 0, -1, 0, 200.9)" gradientUnits="userSpaceOnUse"><stop offset="0" stop-color="#b163dd"/><stop offset="1" stop-color="#6b3ff6"/></linearGradient><linearGradient id="linear-gradient-2" x1="19.58" y1="175.12" x2="48.53" y2="175.12" xlink:href="#linear-gradient"/></defs><g id="Layer_2" data-name="Layer 2"><g id="Layer_1-2" data-name="Layer 1"><g id="Layer_2-2" data-name="Layer 2"><g id="Layer_1-2-2" data-name="Layer 1-2"><path class="cls-1" d="M33.44,53.7h-31C.38,53.7,0,53.36,0,51.31V2.39C0,.38.38,0,2.44,0h62.1c2,0,2.34.38,2.34,2.34v49c0,2-.38,2.34-2.34,2.34ZM3.11,50.54H63.83V3.15H3.11Z"/><path class="cls-2" d="M41.22,42.61H27.51c-.62,0-.62,0-.62-.86l2.19-.33a2.81,2.81,0,0,0,2.6-3,1.1,1.1,0,0,0,0-.18V11.9c0-.29,0-.58-.33-.58A17.06,17.06,0,0,0,25,12c-2.15.76-2.49,1.24-2.63,3.58v2.49c0,.86,0,.47-.57.47a9.77,9.77,0,0,0-1.53,0c-.29,0-.43,0-.43-.47V9.32c0-.39,0-.39.52-.39H47.76c.77,0,.77,0,.77.72V18c0,.43,0,.67-.62.62h-.86c-1,0-1,.2-1-1l-.53-3.2a2.2,2.2,0,0,0-1.19-1.72,11.51,11.51,0,0,0-4.78-1.19H36.92c-.33,0-.48,0-.43.43v25.8a12.18,12.18,0,0,0,0,1.91A1.87,1.87,0,0,0,38,41.23a21.44,21.44,0,0,0,2.48.52C41.22,41.75,41.22,41.75,41.22,42.61Z"/></g></g></g></g></svg>